<svg xmlns="http://www.w3.org/2000/svg" viewBox="0 0 120 19.09"><defs><style>.cls-1{fill:#fff;}</style></defs><title>DesignGood-Logo-120x19</title><g id="Layer_2" data-name="Layer 2"><g id="Layer_1-2" data-name="Layer 1"><path class="cls-1" d="M81.17,15.32c-1.35,0-3.17.69-5,.69-4.82,0-9-3.3-9-8s4.17-8,9-8c1.88,0,3,.72,4.19.72.59,0,.81-.36,1.06-.68l.36,6.26h-.16C81.39,3.7,79.87.16,76.37.16c-3.7,0-4.22,4.59-4.22,7.85s.52,7.84,4.22,7.84a4.75,4.75,0,0,0,1.43-.2v-7H75.6V8.45h8.32v.16H82.2V16C82,15.65,81.77,15.32,81.17,15.32Z"/><path class="cls-1" d="M89.58,5.76a5.21,5.21,0,0,1,5.51,5.12,5.52,5.52,0,0,1-11,0A5.2,5.2,0,0,1,89.58,5.76Zm0,10.11c1.71,0,1.73-2,1.73-5s0-5-1.73-5-1.73,2-1.73,5S87.87,15.87,89.58,15.87Z"/><path class="cls-1" d="M101.56,5.76a5.2,5.2,0,0,1,5.5,5.12,5.52,5.52,0,0,1-11,0A5.21,5.21,0,0,1,101.56,5.76Zm0,10.11c1.7,0,1.72-2,1.72-5s0-5-1.72-5-1.73,2-1.73,5S99.85,15.87,101.56,15.87Z"/><path class="cls-1" d="M118.22,13.58c0,1,.36,2,1.7.87l.08.1A5.13,5.13,0,0,1,116.68,16c-1.18,0-1.88-.91-2-2.18A2.91,2.91,0,0,1,111.78,16c-2.71,0-3.87-2.55-3.87-4.86a5.14,5.14,0,0,1,5.14-5.37,1.57,1.57,0,0,1,1.69,1.08l0-5.37-1.9.25,0-.14,5.43-.72Zm-3.51-6.06c0-.6-.44-1.55-1.29-1.55-1.77,0-1.77,3.11-1.77,4.93,0,2.35,0,4.42,1.48,4.42.87,0,1.38-1.19,1.58-2Z"/><path class="cls-1" d="M18.81,9.75c.05,1.88.72,4.65,3.22,4.65a3.93,3.93,0,0,0,3.25-2.53l.11.06a6.13,6.13,0,0,1-5.5,3.91A4.74,4.74,0,0,1,15,10.89a6,6,0,0,1,.21-1.54c-.4,0-4.21-.06-4.55-.06-.74,0-1.31.23-1.31,1a1.41,1.41,0,0,0,.89,1.18,1.73,1.73,0,0,1-1.86,1.74,1.86,1.86,0,0,1-1.95-1.93c0-1.81,1.9-2.24,3.26-2.24.65,0,4.82,0,5.56.15C15.94,7,18,5.61,20.72,5.61c3.14,0,4.81,1.54,4.27,3.89A22.48,22.48,0,0,1,18.81,9.75Zm0-.29V9.6a24.26,24.26,0,0,0,2.79.11c.36-1.25.32-4-1-4C19.05,5.74,18.81,7.83,18.81,9.46Z"/><path class="cls-1" d="M0,15.81c2.05,0,2.05-1.06,2.05-3.28V6.08c0-2.3,0-3.29-2-3.29V2.66H7.12c4.67,0,7.63,2.15,7.63,6.6,0,3.82-2.4,6.69-6.86,6.69H0ZM10.57,9.3c0-4.4-.44-6.51-4.06-6.51H6v10.8c0,1.8.06,2.22,1.27,2.22C9.39,15.81,10.57,14.12,10.57,9.3Z"/><path class="cls-1" d="M26.39,11.55h.13a4.46,4.46,0,0,0,4.54,3.93c1.21,0,2.09-.59,2.09-1.33,0-2.06-6.76-1.84-6.76-5.58,0-2.33,2.66-3.16,4.63-3.16a7.91,7.91,0,0,1,2.33.36l1.26-.35.19,3.35h-.14a3.66,3.66,0,0,0-3.72-3.21c-1.1,0-1.84.59-1.84,1.31,0,2.16,6.63,1.59,6.63,5.33,0,2.05-2,3.43-4.67,3.43A14.57,14.57,0,0,1,28,15.24l-1.4.36Z"/><path class="cls-1" d="M36.37,15.5v-.13C37.85,15.37,38,15,38,13V8.4c0-1.27-.26-1.78-1.88-1.4l0-.13,5.43-1.46V13c0,2,.17,2.41,1.65,2.41v.13Zm5.45-13a2.05,2.05,0,1,1-2-2A2,2,0,0,1,41.82,2.54Z"/><path class="cls-1" d="M43.64,16.94a1.32,1.32,0,0,1,1.42-1.38,1.37,1.37,0,0,1,1.46,1.27,1,1,0,0,0-.64,1c0,.64.53,1.1,2.29,1.1,2.38,0,4-.86,4-2.13,0-.89-.82-1.4-2.34-1.4-.49,0-1.29,0-2.16,0-1.9,0-4.14-.29-4.14-2.23,0-1,1-1.91,2.6-2.77a2.46,2.46,0,0,1-1.9-2.18c0-2.1,3-3,4.82-3a2.46,2.46,0,0,1,2.28-3.43,1.6,1.6,0,0,1,1.81,1.55A1.62,1.62,0,0,1,51.59,5c.09-.59-.59-.89-1.22-.89s-1.29.28-1.15,1.15c2.07,0,4.11,1.22,4.11,2.64,0,1.75-2,3-4.68,3a8.21,8.21,0,0,1-2.34-.4C44.81,11.61,46,12,48,12c.55,0,1.35,0,2,0,1.91,0,4.38.42,4.38,2.92S51.65,19.09,48,19.09C45.91,19.09,43.64,18.65,43.64,16.94ZM47.45,8c0,1.88.44,2.75,1.41,2.75,1.25,0,1.27-1.58,1.27-2.62,0-1.79-.48-2.72-1.41-2.72S47.45,6.16,47.45,8Z"/><path class="cls-1" d="M61.51,15.5v-.13c1,0,1-.51,1-2V8.69c0-.78-.1-1.8-1.2-1.8a2.76,2.76,0,0,0-1.67.74v5.71c0,1.19,0,2,1,2v.13H54.51v-.13c1.48,0,1.65-.38,1.65-2.41V8.4c0-1.27-.26-1.78-1.88-1.4l0-.13,5.47-1.46-.06,2.05c1.88-1.54,3-2,4.2-2,1.53,0,2.2.85,2.2,2.79V13c0,2,.17,2.41,1.65,2.41v.13Z"/></g></g></svg>