<?xml version="1.0" encoding="UTF-8"?>
<svg width="17px" height="17px" viewBox="0 0 17 17" version="1.1" xmlns="http://www.w3.org/2000/svg" xmlns:xlink="http://www.w3.org/1999/xlink">
    <!-- Generator: Sketch 57.1 (83088) - https://sketch.com -->
    <title></title>
    <desc>Created with Sketch.</desc>
    <g id="Symbols" stroke="none" stroke-width="1" fill="none" fill-rule="evenodd">
        <g id="Footer---uBid-Main" transform="translate(-1609.000000, -131.000000)" fill="#FFFFFF" fill-rule="nonzero">
            <g id="Group-22">
                <g id="Group-15">
                    <g id="Group-14" transform="translate(1491.000000, 119.000000)">
                        <g id="Group-4" transform="translate(106.000000, 0.000000)">
                            <path d="M17.9600361,17.4023438 C18.756915,16.6054648 19.7178429,16.2070312 20.8428486,16.2070312 C21.9678542,16.2070312 22.9229228,16.5996054 23.7080829,17.3847656 C24.4932431,18.1699258 24.8858173,19.1249944 24.8858173,20.25 C24.8858173,21.3750056 24.4932431,22.3300742 23.7080829,23.1152344 C22.9229228,23.9003946 21.9678542,24.2929688 20.8428486,24.2929688 C19.7178429,24.2929688 18.7627744,23.9003946 17.9776142,23.1152344 C17.192454,22.3300742 16.7998798,21.3750056 16.7998798,20.25 C16.7998798,19.1249944 17.1865947,18.1757851 17.9600361,17.4023438 Z M18.9795673,22.1132812 C19.4951949,22.6289088 20.1162824,22.8867188 20.8428486,22.8867188 C21.5694147,22.8867188 22.1905022,22.6289088 22.7061298,22.1132812 C23.2217574,21.5976537 23.4795673,20.9765661 23.4795673,20.25 C23.4795673,19.5234339 23.2217574,18.9023463 22.7061298,18.3867188 C22.1905022,17.8710912 21.5694147,17.6132812 20.8428486,17.6132812 C20.1162824,17.6132812 19.4951949,17.8710912 18.9795673,18.3867188 C18.4639397,18.9023463 18.2061298,19.5234339 18.2061298,20.25 C18.2061298,20.9765661 18.4639397,21.5976537 18.9795673,22.1132812 Z M25.6944111,15.3984375 C25.881912,15.5625008 25.9756611,15.7734362 25.9756611,16.03125 C25.9756611,16.2890638 25.8877713,16.5117178 25.7119892,16.6992188 C25.5362071,16.8867197 25.3194123,16.9804688 25.0615986,16.9804688 C24.8037848,16.9804688 24.5811307,16.8867197 24.3936298,16.6992188 C24.2061289,16.5117178 24.1123798,16.2890638 24.1123798,16.03125 C24.1123798,15.7734362 24.2061289,15.5566415 24.3936298,15.3808594 C24.5811307,15.2050772 24.8037848,15.1171875 25.0615986,15.1171875 C25.3194123,15.1171875 25.5303477,15.2109366 25.6944111,15.3984375 Z M28.6826923,17.015625 C28.7061299,17.6484407 28.7178486,18.7265549 28.7178486,20.25 C28.7178486,21.7734451 28.7061299,22.8515593 28.6826923,23.484375 C28.6123795,24.9140696 28.1846494,26.0214804 27.3994892,26.8066406 C26.614329,27.5918008 25.5069182,28.0078123 24.0772236,28.0546875 C23.4444079,28.1015627 22.3662937,28.125 20.8428486,28.125 C19.3194034,28.125 18.2412892,28.1015627 17.6084736,28.0546875 C16.1787789,27.9843746 15.0772274,27.5625039 14.3037861,26.7890625 C13.999097,26.5078111 13.7530057,26.1796894 13.5655048,25.8046875 C13.3780039,25.4296856 13.2432396,25.066408 13.1612079,24.7148438 C13.0791763,24.3632795 13.0381611,23.9531273 13.0381611,23.484375 C12.9912858,22.8515593 12.9678486,21.7734451 12.9678486,20.25 C12.9678486,18.7265549 12.9912858,17.636722 13.0381611,16.9804688 C13.1084739,15.5742117 13.5303447,14.4843789 14.3037861,13.7109375 C15.0772274,12.9140585 16.1787789,12.4804691 17.6084736,12.4101562 C18.2412892,12.3867186 19.3194034,12.375 20.8428486,12.375 C22.3662937,12.375 23.4444079,12.3867186 24.0772236,12.4101562 C25.5069182,12.4804691 26.614329,12.9081992 27.3994892,13.6933594 C28.1846494,14.4785196 28.6123795,15.5859304 28.6826923,17.015625 Z M26.9951923,24.890625 C27.0655052,24.7031241 27.1240983,24.4628921 27.1709736,24.1699219 C27.2178488,23.8769517 27.2530047,23.5253927 27.2764423,23.1152344 C27.2998799,22.7050761 27.3115986,22.371095 27.3115986,22.1132812 C27.3115986,21.8554675 27.3115986,21.4921898 27.3115986,21.0234375 C27.3115986,20.5546852 27.3115986,20.2910159 27.3115986,20.2324219 C27.3115986,20.1738278 27.3115986,19.9160179 27.3115986,19.4589844 C27.3115986,19.0019508 27.3115986,18.6445325 27.3115986,18.3867188 C27.3115986,18.128905 27.2998799,17.7949239 27.2764423,17.3847656 C27.2530047,16.9746073 27.2178488,16.6230483 27.1709736,16.3300781 C27.1240983,16.0371079 27.0655052,15.7968759 26.9951923,15.609375 C26.7139409,14.8828089 26.2100397,14.3789077 25.4834736,14.0976562 C25.2959726,14.0273434 25.0557406,13.9687502 24.7627704,13.921875 C24.4698002,13.8749998 24.1182412,13.8398439 23.7080829,13.8164062 C23.2979246,13.7929686 22.9698029,13.78125 22.7237079,13.78125 C22.477613,13.78125 22.1143353,13.78125 21.6338642,13.78125 C21.153393,13.78125 20.8897238,13.78125 20.8428486,13.78125 C20.7959733,13.78125 20.5381634,13.78125 20.0694111,13.78125 C19.6006587,13.78125 19.2373811,13.78125 18.9795673,13.78125 C18.7217535,13.78125 18.3877725,13.7929686 17.9776142,13.8164062 C17.5674559,13.8398439 17.2158969,13.8749998 16.9229267,13.921875 C16.6299565,13.9687502 16.3897245,14.0273434 16.2022236,14.0976562 C15.4756574,14.3789077 14.9717562,14.8828089 14.6905048,15.609375 C14.620192,15.7968759 14.5615988,16.0371079 14.5147236,16.3300781 C14.4678483,16.6230483 14.4326924,16.9746073 14.4092548,17.3847656 C14.3858172,17.7949239 14.3740986,18.1230456 14.3740986,18.3691406 C14.3740986,18.6152356 14.3740986,18.9785132 14.3740986,19.4589844 C14.3740986,19.9394555 14.3740986,20.2031248 14.3740986,20.25 C14.3740986,20.3437505 14.3740986,20.5605452 14.3740986,20.9003906 C14.3740986,21.2402361 14.3740986,21.5214833 14.3740986,21.7441406 C14.3740986,21.966798 14.3799579,22.2539045 14.3916767,22.6054688 C14.4033955,22.957033 14.4209734,23.2558581 14.4444111,23.5019531 C14.4678487,23.7480481 14.5030046,23.9999987 14.5498798,24.2578125 C14.596755,24.5156263 14.6436296,24.7265617 14.6905048,24.890625 C14.9951938,25.6171911 15.499095,26.1210923 16.2022236,26.4023438 C16.3897245,26.4726566 16.6299565,26.5312498 16.9229267,26.578125 C17.2158969,26.6250002 17.5674559,26.6601561 17.9776142,26.6835938 C18.3877725,26.7070314 18.7158942,26.71875 18.9619892,26.71875 C19.2080842,26.71875 19.5713618,26.71875 20.0518329,26.71875 C20.5323041,26.71875 20.7959733,26.71875 20.8428486,26.71875 C20.9131614,26.71875 21.1768306,26.71875 21.6338642,26.71875 C22.0908977,26.71875 22.448316,26.71875 22.7061298,26.71875 C22.9639436,26.71875 23.2979246,26.7070314 23.7080829,26.6835938 C24.1182412,26.6601561 24.4698002,26.6250002 24.7627704,26.578125 C25.0557406,26.5312498 25.2959726,26.4726566 25.4834736,26.4023438 C26.2100397,26.0976547 26.7139409,25.5937535 26.9951923,24.890625 Z" id=""></path>
                        </g>
                    </g>
                </g>
            </g>
        </g>
    </g>
</svg>