<?xml version="1.0" encoding="UTF-8"?>
<svg width="17px" height="17px" viewBox="0 0 17 17" version="1.1" xmlns="http://www.w3.org/2000/svg" xmlns:xlink="http://www.w3.org/1999/xlink">
    <!-- Generator: Sketch 57.1 (83088) - https://sketch.com -->
    <title></title>
    <desc>Created with Sketch.</desc>
    <g id="Symbols" stroke="none" stroke-width="1" fill="none" fill-rule="evenodd">
        <g id="Footer---uBid-Main" transform="translate(-1503.000000, -131.000000)" fill="#FFFFFF" fill-rule="nonzero">
            <g id="Group-22">
                <g id="Group-15">
                    <g id="Group-14" transform="translate(1491.000000, 119.000000)">
                        <g id="Group">
                            <path d="M28.6826923,13.2539062 L28.6826923,27.2460938 C28.6826923,27.4804699 28.6006619,27.685546 28.4365986,27.8613281 C28.2725352,28.0371103 28.0615998,28.125 27.8037861,28.125 L23.7959736,28.125 L23.7959736,22.0078125 L25.8350361,22.0078125 L26.1514423,19.6523438 L23.7959736,19.6523438 L23.7959736,18.140625 C23.7959736,17.8828112 23.8252701,17.6777351 23.8838642,17.5253906 C23.9424582,17.3730461 24.0596446,17.2441412 24.2354267,17.1386719 C24.4112088,17.0332026 24.6514408,16.9804688 24.9561298,16.9804688 L26.2217548,16.9804688 L26.2217548,14.8359375 C25.7295648,14.7890623 25.1201959,14.765625 24.3936298,14.765625 C23.4795627,14.765625 22.7412889,15.0351536 22.1787861,15.5742188 C21.6162832,16.1132839 21.3350361,16.8867137 21.3350361,17.8945312 L21.3350361,19.6523438 L19.2959736,19.6523438 L19.2959736,22.0078125 L21.3350361,22.0078125 L21.3350361,28.125 L13.8115986,28.125 C13.5537848,28.125 13.3428494,28.0429696 13.1787861,27.8789062 C13.0147227,27.7148429 12.9326923,27.5039075 12.9326923,27.2460938 L12.9326923,13.2539062 C12.9326923,12.9960925 13.0147227,12.7851571 13.1787861,12.6210938 C13.3428494,12.4570304 13.5537848,12.375 13.8115986,12.375 L27.8037861,12.375 C28.0381622,12.375 28.2432383,12.4570304 28.4190204,12.6210938 C28.5948026,12.7851571 28.6826923,12.9960925 28.6826923,13.2539062 Z" id=""></path>
                        </g>
                    </g>
                </g>
            </g>
        </g>
    </g>
</svg>