<?xml version="1.0" encoding="UTF-8"?>
<svg width="22px" height="23px" viewBox="0 0 22 23" version="1.1" xmlns="http://www.w3.org/2000/svg" xmlns:xlink="http://www.w3.org/1999/xlink">
    <!-- Generator: Sketch 57.1 (83088) - https://sketch.com -->
    <title></title>
    <desc>Created with Sketch.</desc>
    <g id="-" stroke="none" stroke-width="1" fill="none" fill-rule="evenodd">
        <g id="Homepage---Products" transform="translate(-474.000000, -1068.000000)" fill="#9BA5B0" fill-rule="nonzero">
            <g id="Group-18" transform="translate(371.000000, 970.000000)">
                <g id="Group-6" transform="translate(0.000000, 94.000000)">
                    <path d="M103.021484,15.578125 L103.021484,6.8125 C103.021484,6.23958047 103.222003,5.75260617 103.623047,5.3515625 C104.024091,4.95051883 104.511065,4.75 105.083984,4.75 L113.849609,4.75 C114.422529,4.75 114.909503,4.95051883 115.310547,5.3515625 L124.419922,14.4609375 C124.820966,14.8619812 125.021484,15.3489555 125.021484,15.921875 C125.021484,16.4947945 124.820966,16.9817688 124.419922,17.3828125 L115.654297,26.1484375 C115.253253,26.5494812 114.766279,26.75 114.193359,26.75 C113.62044,26.75 113.133466,26.5494812 112.732422,26.1484375 L103.623047,17.0390625 C103.222003,16.6380188 103.021484,16.1510445 103.021484,15.578125 Z M109.294922,8.1015625 C108.893878,7.70051883 108.406904,7.5 107.833984,7.5 C107.261065,7.5 106.774091,7.70051883 106.373047,8.1015625 C105.972003,8.50260617 105.771484,8.98958047 105.771484,9.5625 C105.771484,10.1354195 105.972003,10.6223938 106.373047,11.0234375 C106.774091,11.4244812 107.261065,11.625 107.833984,11.625 C108.406904,11.625 108.893878,11.4244812 109.294922,11.0234375 C109.695966,10.6223938 109.896484,10.1354195 109.896484,9.5625 C109.896484,8.98958047 109.695966,8.50260617 109.294922,8.1015625 Z" id=""></path>
                </g>
            </g>
        </g>
    </g>
</svg>