<?xml version="1.0" encoding="UTF-8"?>
<svg width="16px" height="16px" viewBox="0 0 16 16" version="1.1" xmlns="http://www.w3.org/2000/svg" xmlns:xlink="http://www.w3.org/1999/xlink">
    <!-- Generator: Sketch 57.1 (83088) - https://sketch.com -->
    <title></title>
    <desc>Created with Sketch.</desc>
    <g id="Symbols" stroke="none" stroke-width="1" fill="none" fill-rule="evenodd">
        <g id="Header---uBid-Main" transform="translate(-663.000000, -51.000000)" fill="#9BA5B0" fill-rule="nonzero">
            <g id="Group-16">
                <g id="Group-24" transform="translate(43.000000, 0.000000)">
                    <g id="Group-2" transform="translate(605.000000, 39.000000)">
                        <path d="M30.796875,25.84375 C30.9427091,25.9895841 31.015625,26.1666656 31.015625,26.375 C31.015625,26.5833344 30.9427091,26.7604159 30.796875,26.90625 L29.921875,27.78125 C29.7760409,27.9270841 29.5989594,28 29.390625,28 C29.1822906,28 29.0052091,27.9270841 28.859375,27.78125 L25.734375,24.65625 C25.5885409,24.5104159 25.515625,24.3333344 25.515625,24.125 L25.515625,23.625 C24.3489525,24.5416713 23.015625,25 21.515625,25 C19.7239494,25 18.1927147,24.3645897 16.921875,23.09375 C15.6510353,21.8229103 15.015625,20.2916756 15.015625,18.5 C15.015625,16.7083244 15.6510353,15.1770897 16.921875,13.90625 C18.1927147,12.6354103 19.7239494,12 21.515625,12 C23.3073006,12 24.8385353,12.6354103 26.109375,13.90625 C27.3802147,15.1770897 28.015625,16.7083244 28.015625,18.5 C28.015625,20 27.5572963,21.3333275 26.640625,22.5 L27.140625,22.5 C27.3489594,22.5 27.5260409,22.5729159 27.671875,22.71875 L30.796875,25.84375 Z M18.671875,21.34375 C19.4635456,22.1145872 20.4114528,22.5 21.515625,22.5 C22.6197972,22.5 23.5624961,22.1093789 24.34375,21.328125 C25.1250039,20.5468711 25.515625,19.6041722 25.515625,18.5 C25.515625,17.3958278 25.1250039,16.4531289 24.34375,15.671875 C23.5624961,14.8906211 22.6197972,14.5 21.515625,14.5 C20.4114528,14.5 19.4687539,14.8906211 18.6875,15.671875 C17.9062461,16.4531289 17.515625,17.3958278 17.515625,18.5 C17.515625,19.6041722 17.9010378,20.5520794 18.671875,21.34375 Z" id=""></path>
                    </g>
                </g>
            </g>
        </g>
    </g>
</svg>