<?xml version="1.0" encoding="UTF-8"?>
<svg width="23px" height="21px" viewBox="0 0 23 21" version="1.1" xmlns="http://www.w3.org/2000/svg" xmlns:xlink="http://www.w3.org/1999/xlink">
    <!-- Generator: Sketch 57.1 (83088) - https://sketch.com -->
    <title></title>
    <desc>Created with Sketch.</desc>
    <g id="Symbols" stroke="none" stroke-width="1" fill="none" fill-rule="evenodd">
        <g id="Header---uBid-Main" transform="translate(-1676.000000, -47.000000)" fill="#9BA5B0" fill-rule="nonzero">
            <g id="Group-16">
                <g id="Group-24" transform="translate(43.000000, 0.000000)">
                    <path d="M1653.89453,59.2578125 C1653.79036,59.7526066 1653.49089,60 1652.99609,60 L1641.55078,60 L1641.78516,61.25 L1652.29297,61.25 C1652.57943,61.25 1652.8138,61.3671863 1652.99609,61.6015625 C1653.17839,61.8359387 1653.24349,62.0963527 1653.19141,62.3828125 L1652.95703,63.359375 C1653.79037,63.750002 1654.20703,64.4010371 1654.20703,65.3125 C1654.20703,65.9114613 1653.99219,66.4257791 1653.5625,66.8554688 C1653.13281,67.2851584 1652.61849,67.5 1652.01953,67.5 C1651.42057,67.5 1650.90625,67.2851584 1650.47656,66.8554688 C1650.04687,66.4257791 1649.83203,65.9114613 1649.83203,65.3125 C1649.83203,64.6874969 1650.05338,64.1666687 1650.49609,63.75 L1642.29297,63.75 C1642.73568,64.1666687 1642.95703,64.6874969 1642.95703,65.3125 C1642.95703,65.9114613 1642.74219,66.4257791 1642.3125,66.8554688 C1641.88281,67.2851584 1641.36849,67.5 1640.76953,67.5 C1640.17057,67.5 1639.65625,67.2851584 1639.22656,66.8554688 C1638.79687,66.4257791 1638.58203,65.9114613 1638.58203,65.3125 C1638.58203,64.4791625 1638.94661,63.841148 1639.67578,63.3984375 L1636.94141,50 L1634.20703,50 C1633.94661,50 1633.72526,49.9088551 1633.54297,49.7265625 C1633.36068,49.5442699 1633.26953,49.322918 1633.26953,49.0625 L1633.26953,48.4375 C1633.26953,48.177082 1633.36068,47.9557301 1633.54297,47.7734375 C1633.72526,47.5911449 1633.94661,47.5 1634.20703,47.5 L1638.23047,47.5 C1638.4388,47.5 1638.6276,47.5716139 1638.79688,47.7148438 C1638.96615,47.8580736 1639.07682,48.0338531 1639.12891,48.2421875 L1639.48047,50 L1654.83203,50 C1655.14453,50 1655.39193,50.1171863 1655.57422,50.3515625 C1655.75651,50.5859387 1655.80859,50.8463527 1655.73047,51.1328125 L1653.89453,59.2578125 Z" id=""></path>
                </g>
            </g>
        </g>
    </g>
</svg>