<?xml version="1.0" encoding="UTF-8"?>
<svg width="19px" height="16px" viewBox="0 0 19 16" version="1.1" xmlns="http://www.w3.org/2000/svg" xmlns:xlink="http://www.w3.org/1999/xlink">
    <!-- Generator: Sketch 57.1 (83088) - https://sketch.com -->
    <title></title>
    <desc>Created with Sketch.</desc>
    <g id="Symbols" stroke="none" stroke-width="1" fill="none" fill-rule="evenodd">
        <g id="Footer---uBid-Main" transform="translate(-1555.000000, -131.000000)" fill="#FFFFFF" fill-rule="nonzero">
            <g id="Group-22">
                <g id="Group-15">
                    <g id="Group-14" transform="translate(1491.000000, 119.000000)">
                        <g id="Group-2" transform="translate(53.000000, 0.000000)">
                            <path d="M27.9619892,16.59375 C27.9854268,16.6875005 27.9971454,16.8398427 27.9971454,17.0507812 C27.9971454,18.292975 27.7627728,19.5292907 27.2940204,20.7597656 C26.8252704,21.9902405 26.1631653,23.1152293 25.3076923,24.1347656 C24.4522193,25.154302 23.3448085,25.9804656 21.9854267,26.6132812 C20.6260449,27.2460969 19.1260599,27.5625 17.4854267,27.5625 C15.4229164,27.5625 13.5362165,27.0117243 11.8252704,25.9101562 C12.0830842,25.9335939 12.37605,25.9453125 12.7041767,25.9453125 C14.4151227,25.9453125 15.9502636,25.417974 17.3096454,24.3632812 C16.4893288,24.3632812 15.7686329,24.1230493 15.1475361,23.6425781 C14.5264392,23.162107 14.0987091,22.5585974 13.8643329,21.8320312 C14.0987091,21.8554689 14.3213631,21.8671875 14.5323017,21.8671875 C14.8604283,21.8671875 15.18855,21.8320316 15.5166767,21.7617188 C14.9541739,21.6445307 14.4502727,21.410158 14.0049579,21.0585938 C13.5596432,20.7070295 13.2080842,20.2792994 12.9502704,19.7753906 C12.6924566,19.2714819 12.5635517,18.7265654 12.5635517,18.140625 L12.5635517,18.0703125 C13.0791793,18.3750015 13.629955,18.5390624 14.2158954,18.5625 C13.1143274,17.8124962 12.5635517,16.7812566 12.5635517,15.46875 C12.5635517,14.8124967 12.7393312,14.1914092 13.0908954,13.6054688 C14.0049625,14.753912 15.1240919,15.6679654 16.4483173,16.3476562 C17.7725427,17.0273471 19.1846379,17.4023434 20.6846454,17.4726562 C20.6377702,17.1914048 20.6143329,16.9101577 20.6143329,16.6289062 C20.6143329,15.6210887 20.9717512,14.7539099 21.6865986,14.0273438 C22.4014459,13.3007776 23.2627654,12.9375 24.2705829,12.9375 C25.3487133,12.9375 26.251048,13.3242149 26.9776142,14.0976562 C27.8213684,13.9335929 28.6065168,13.6406271 29.3330829,13.21875 C29.0518315,14.0859418 28.5127744,14.7656225 27.7158954,15.2578125 C28.4190239,15.164062 29.1221419,14.9648453 29.8252704,14.6601562 C29.3096429,15.41016 28.6885553,16.0546848 27.9619892,16.59375 Z" id=""></path>
                        </g>
                    </g>
                </g>
            </g>
        </g>
    </g>
</svg>