<?xml version="1.0" encoding="UTF-8"?>
<svg width="67px" height="17px" viewBox="0 0 67 17" version="1.1" xmlns="http://www.w3.org/2000/svg" xmlns:xlink="http://www.w3.org/1999/xlink">
    <!-- Generator: Sketch 57.1 (83088) - https://sketch.com -->
    <title>Group 2 Copy</title>
    <desc>Created with Sketch.</desc>
    <g id="-" stroke="none" stroke-width="1" fill="none" fill-rule="evenodd">
        <g id="Homepage---Products" transform="translate(-402.000000, -264.000000)" fill="#FFFFFF">
            <g id="Group-26" transform="translate(335.000000, 245.000000)">
                <g id="Group-2-Copy" transform="translate(67.000000, 19.000000)">
                    <path d="M30.3264333,14.1995261 C32.2555505,14.1995261 33.2925414,13.3240261 33.2943523,11.525669 C33.3082351,9.81474038 32.215109,8.82813324 30.1610459,8.82813324 L24.312127,8.82813324 L24.312127,14.1995261 L30.3264333,14.1995261 Z M29.6178027,6.5665261 C31.3718748,6.5665261 32.4553432,5.7930261 32.4553432,4.46095467 C32.4553432,3.0050261 31.4654333,2.33716895 29.5363162,2.33716895 L24.312127,2.33716895 L24.312127,6.5665261 L29.6178027,6.5665261 Z M21.8566676,0.0190975263 L29.6063342,0.0190975263 C33.0396315,0.0190975263 34.9554694,1.46531181 34.9554694,4.1610261 C34.9554694,6.07474038 33.8786405,7.17366895 32.6303883,7.58106181 C34.2420099,7.95324038 35.7781811,9.25191895 35.7781811,11.925169 C35.7781811,15.0058118 33.916064,16.5303475 30.4109378,16.5303475 L21.8566676,16.5303475 L21.8566676,0.0190975263 Z" id="Fill-1-Copy"></path>
                    <polygon id="Fill-3-Copy" points="42.0645919 16.5298618 44.6033486 16.5298618 44.6033486 0.0186118121 42.0645919 0.0186118121"></polygon>
                    <path d="M57.3105928,14.207844 C62.0138721,14.1981297 64.2206468,11.772594 64.2206468,8.3052011 C64.2206468,4.82930824 62.0138721,2.34305824 57.3105928,2.31877253 L54.2654126,2.30662967 L54.2654126,14.2127011 L57.3105928,14.207844 Z M51.7399351,0.0195225263 L57.3172324,-3.94430453e-31 C63.2560883,-0.0211560451 66.7551784,3.56462967 66.7551784,8.30034395 C66.7551784,13.0190582 63.2560883,16.5301654 57.3172324,16.5301654 L51.7399351,16.5301654 L51.7399351,0.0195225263 Z" id="Fill-5-Copy"></path>
                    <path d="M7.54806306,16.2323618 C3.38621622,16.2323618 0,12.8262904 0,8.64004038 L0,0.0186118121 L2.2441982,0.0186118121 L2.2441982,8.64004038 C2.2441982,11.5816475 4.6236036,13.9750047 7.54806306,13.9750047 C10.4725225,13.9750047 12.8519279,11.5816475 12.8519279,8.64004038 L12.8519279,0.0186118121 L15.0961261,0.0186118121 L15.0961261,8.64004038 C15.0961261,12.8262904 11.7105135,16.2323618 7.54806306,16.2323618" id="Fill-6-Copy" fill-opacity="0.6"></path>
                </g>
            </g>
        </g>
    </g>
</svg>