<?xml version="1.0" encoding="UTF-8"?>
<svg width="147px" height="48px" viewBox="0 0 147 48" version="1.1" xmlns="http://www.w3.org/2000/svg" xmlns:xlink="http://www.w3.org/1999/xlink">
    <!-- Generator: Sketch 57.1 (83088) - https://sketch.com -->
    <title>Group 10 Copy</title>
    <desc>Created with Sketch.</desc>
    <g id="Symbols" stroke="none" stroke-width="1" fill="none" fill-rule="evenodd">
        <g id="Header---uBid-Main" transform="translate(-449.000000, -33.000000)">
            <g id="Group-16">
                <g id="Group-24" transform="translate(43.000000, 0.000000)">
                    <g id="Group-10-Copy" transform="translate(406.000000, 33.000000)">
                        <path d="M98.0443663,35.36496 C100.597692,35.36496 101.970225,34.21136 101.972622,31.84176 C101.990997,29.58736 100.544165,28.28736 97.8254641,28.28736 L90.0839967,28.28736 L90.0839967,35.36496 L98.0443663,35.36496 Z M97.1064424,25.30736 C99.4280837,25.30736 100.862133,24.28816 100.862133,22.53296 C100.862133,20.61456 99.5519152,19.73456 96.9985891,19.73456 L90.0839967,19.73456 L90.0839967,25.30736 L97.1064424,25.30736 Z M86.8340185,16.68016 L97.091263,16.68016 C101.63548,16.68016 104.17123,18.58576 104.17123,22.13776 C104.17123,24.65936 102.74597,26.10736 101.093817,26.64416 C103.226915,27.13456 105.260149,28.84576 105.260149,32.36816 C105.260149,36.42736 102.795502,38.43616 98.1562141,38.43616 L86.8340185,38.43616 L86.8340185,16.68016 Z" id="Fill-1" fill="#FFFFFF"></path>
                        <polygon id="Fill-3" fill="#FFFFFF" points="113.580668 38.43552 116.940897 38.43552 116.940897 16.67952 113.580668 16.67952"></polygon>
                        <path d="M133.759854,35.37592 C139.984984,35.36312 142.90581,32.16712 142.90581,27.59832 C142.90581,23.01832 139.984984,19.74232 133.759854,19.71032 L129.729337,19.69432 L129.729337,35.38232 L133.759854,35.37592 Z M126.386685,16.68072 L133.768642,16.6549962 C141.629147,16.62712 146.260446,21.35192 146.260446,27.59192 C146.260446,33.80952 141.629147,38.43592 133.768642,38.43592 L126.386685,38.43592 L126.386685,16.68072 Z" id="Fill-5" fill="#FFFFFF"></path>
                        <path d="M67.8955451,38.04352 C62.3870397,38.04352 57.9051375,33.55552 57.9051375,28.03952 L57.9051375,16.67952 L60.8754962,16.67952 L60.8754962,28.03952 C60.8754962,31.91552 64.0248114,35.06912 67.8955451,35.06912 C71.7662788,35.06912 74.915594,31.91552 74.915594,28.03952 L74.915594,16.67952 L77.8859527,16.67952 L77.8859527,28.03952 C77.8859527,33.55552 73.4048495,38.04352 67.8955451,38.04352" id="Fill-6" fill="#9BA5B0"></path>
                        <path d="M21.3646924,47.48176 C9.58392065,47.48176 0.000159782609,37.88496 0.000159782609,26.08816 L0.000159782609,18.31456 L3.6575837,18.31456 L3.6575837,26.08816 C3.6575837,35.86496 11.6011761,43.81936 21.3646924,43.81936 C31.1282087,43.81936 39.0718011,35.86496 39.0718011,26.08816 L39.0718011,0.00016 L42.729225,0.00016 L42.729225,26.08816 C42.729225,37.88496 33.1454641,47.48176 21.3646924,47.48176" id="Fill-7" fill="#66C6C3"></path>
                        <path d="M21.3646924,40.1564 C13.6184315,40.1564 7.31580652,33.8452 7.31580652,26.0884 L7.31580652,14.6516 L10.9732304,14.6516 L10.9732304,26.0884 C10.9732304,31.8252 15.634888,36.4932 21.3646924,36.4932 C27.0944967,36.4932 31.7561543,31.8252 31.7561543,26.0884 L31.7561543,3.6628 L35.4135783,3.6628 L35.4135783,26.0884 C35.4135783,33.8452 29.1117522,40.1564 21.3646924,40.1564" id="Fill-8" fill="#66C6C3"></path>
                        <path d="M21.3646924,32.83064 C17.6521435,32.83064 14.6314533,29.80584 14.6314533,26.08824 L14.6314533,10.98824 L18.2888772,10.98824 L18.2888772,26.08824 C18.2888772,27.78584 19.6693989,29.16744 21.3646924,29.16744 C23.0607848,29.16744 24.4405076,27.78584 24.4405076,26.08824 L24.4405076,7.32584 L28.0979315,7.32584 L28.0979315,26.08824 C28.0979315,29.80584 25.0772413,32.83064 21.3646924,32.83064" id="Fill-9" fill="#66C6C3"></path>
                    </g>
                </g>
            </g>
        </g>
    </g>
</svg>