<?xml version="1.0" encoding="UTF-8"?>
<svg width="75px" height="83px" viewBox="0 0 75 83" version="1.1" xmlns="http://www.w3.org/2000/svg" xmlns:xlink="http://www.w3.org/1999/xlink">
    <!-- Generator: Sketch 57.1 (83088) - https://sketch.com -->
    <title>Group 11</title>
    <desc>Created with Sketch.</desc>
    <g id="Symbols" stroke="none" stroke-width="1" fill="none" fill-rule="evenodd">
        <g id="Footer---uBid-Main" transform="translate(-426.000000, -82.000000)" fill="#9BA5B0">
            <g id="Group-22">
                <g id="Group-15">
                    <g id="Group-11" transform="translate(426.000000, 82.000000)">
                        <path d="M37.2637197,82.8167442 C16.715862,82.8167442 -1.0658141e-14,66.0781395 -1.0658141e-14,45.5023256 L-1.0658141e-14,31.9437209 L6.37922776,31.9437209 L6.37922776,45.5023256 C6.37922776,62.5548837 20.2343308,76.4288372 37.2637197,76.4288372 C54.2931086,76.4288372 68.1482116,62.5548837 68.1482116,45.5023256 L68.1482116,3.19744231e-14 L74.5274393,3.19744231e-14 L74.5274393,45.5023256 C74.5274393,66.0781395 57.8115774,82.8167442 37.2637197,82.8167442" id="Fill-7"></path>
                        <path d="M37.2637197,70.0399535 C23.7527995,70.0399535 12.759849,59.0320465 12.759849,45.5027442 L12.759849,25.5548372 L19.1390767,25.5548372 L19.1390767,45.5027442 C19.1390767,55.5087907 27.2698749,63.6506512 37.2637197,63.6506512 C47.2575645,63.6506512 55.3883626,55.5087907 55.3883626,45.5027442 L55.3883626,6.38832558 L61.7675904,6.38832558 L61.7675904,45.5027442 C61.7675904,59.0320465 50.7760332,70.0399535 37.2637197,70.0399535" id="Fill-8"></path>
                        <path d="M37.2637197,57.2624651 C30.7883437,57.2624651 25.5196979,51.9866512 25.5196979,45.5024651 L25.5196979,19.1652558 L31.8989257,19.1652558 L31.8989257,45.5024651 C31.8989257,48.4633953 34.3068124,50.8731628 37.2637197,50.8731628 C40.2220203,50.8731628 42.6285137,48.4633953 42.6285137,45.5024651 L42.6285137,12.7773488 L49.0077414,12.7773488 L49.0077414,45.5024651 C49.0077414,51.9866512 43.7390957,57.2624651 37.2637197,57.2624651" id="Fill-9"></path>
                    </g>
                </g>
            </g>
        </g>
    </g>
</svg>