<?xml version="1.0" encoding="UTF-8"?>
<svg width="129px" height="29px" viewBox="0 0 129 29" version="1.1" xmlns="http://www.w3.org/2000/svg" xmlns:xlink="http://www.w3.org/1999/xlink">
    <!-- Generator: Sketch 57.1 (83088) - https://sketch.com -->
    <title>Group 13</title>
    <desc>Created with Sketch.</desc>
    <defs>
        <polygon id="path-1" points="0 28.9587895 128.1405 28.9587895 128.1405 0 0 0"></polygon>
    </defs>
    <g id="-" stroke="none" stroke-width="1" fill="none" fill-rule="evenodd">
        <g id="Homepage---Products" transform="translate(-580.000000, -259.000000)">
            <g id="Group-25" transform="translate(544.000000, 245.000000)">
                <g id="Group-13" transform="translate(36.000000, 14.000000)">
                    <path d="M25.09275,19.4464842 C26.68875,19.4464842 27.54825,18.7138526 27.54975,17.2089053 C27.56175,15.7772211 26.65575,14.9514842 24.95625,14.9514842 L20.11725,14.9514842 L20.11725,19.4464842 L25.09275,19.4464842 Z M24.50625,13.0573263 C25.95825,13.0573263 26.85525,12.4101684 26.85525,11.2959579 C26.85525,10.0764316 26.03625,9.5178 24.43875,9.5178 L20.11725,9.5178 L20.11725,13.0573263 L24.50625,13.0573263 Z M18.08475,7.57785263 L24.49725,7.57785263 C27.33825,7.57785263 28.92375,8.78822105 28.92375,11.0441158 C28.92375,12.6452211 28.03275,13.5655895 26.99925,13.9074842 C28.33275,14.2188526 29.60475,15.3055895 29.60475,17.5431684 C29.60475,20.1211158 28.06275,21.3971158 25.16325,21.3971158 L18.08475,21.3971158 L18.08475,7.57785263 Z" id="Fill-1" fill="#234156"></path>
                    <mask id="mask-2" fill="white">
                        <use xlink:href="#path-1"></use>
                    </mask>
                    <g id="Clip-4"></g>
                    <polygon id="Fill-3" fill="#234156" mask="url(#mask-2)" points="34.806 21.3974211 36.906 21.3974211 36.906 7.57663158 34.806 7.57663158"></polygon>
                    <path d="M47.41995,19.4539632 C51.31245,19.4463316 53.13795,17.4163316 53.13795,14.5132789 C53.13795,11.6041211 51.31245,9.52222632 47.41995,9.50238421 L44.89995,9.4917 L44.89995,19.4570158 L47.41995,19.4539632 Z M42.81195,7.5777 L47.42595,7.56084042 C52.33995,7.54412105 55.23495,10.5448579 55.23495,14.5087 C55.23495,18.4588053 52.33995,21.3969632 47.42595,21.3969632 L42.81195,21.3969632 L42.81195,7.5777 Z" id="Fill-5" fill="#234156" mask="url(#mask-2)"></path>
                    <path d="M6.246,21.1480211 C2.802,21.1480211 0,18.2968632 0,14.7924421 L0,7.57602105 L1.857,7.57602105 L1.857,14.7924421 C1.857,17.2559158 3.8265,19.2584421 6.246,19.2584421 C8.664,19.2584421 10.6335,17.2559158 10.6335,14.7924421 L10.6335,7.57602105 L12.4905,7.57602105 L12.4905,14.7924421 C12.4905,18.2968632 9.69,21.1480211 6.246,21.1480211" id="Fill-6" fill="#234156" mask="url(#mask-2)"></path>
                    <path d="M60.0498,28.9584842 L59.9988,28.9584842 L59.9643,28.9584842 C59.8413,28.8562211 59.7663,28.7234316 59.7363,28.5631684 C59.7078,28.4029053 59.7408,28.2533263 59.8308,28.1159579 C59.8968,28.0014842 59.9703,27.8870105 60.0498,27.7725368 C60.0618,27.7603263 60.0678,27.7496421 60.0678,27.7374316 C61.7793,25.1808526 63.5148,22.6364842 65.2713,20.1028 C67.0278,17.5706421 68.8263,15.0644316 70.6623,12.5887474 C72.2283,10.5022737 73.8168,8.42801053 75.4278,6.36443158 C75.6633,6.0668 75.8943,5.76916842 76.1208,5.47001053 C76.8753,4.49622105 77.6358,3.53311579 78.4008,2.58222105 C78.7173,2.19148421 79.0323,1.80227368 79.3473,1.41306316 C79.5273,1.17190526 79.7193,0.936852632 79.9233,0.707905263 C80.0583,0.546115789 80.2023,0.475905263 80.3523,0.492694737 C80.5053,0.509484211 80.6163,0.593431579 80.6838,0.741484211 C80.7963,1.05132632 80.7678,1.36574737 80.5983,1.6878 C80.4528,1.93964211 80.2833,2.18537895 80.0913,2.42653684 C79.8543,2.73637895 79.6248,3.04011579 79.3983,3.33774737 C78.5193,4.48401053 77.6358,5.63027368 76.7463,6.77653684 C74.6493,9.44758947 72.5688,12.1308526 70.5018,14.8248 C68.4348,17.5187474 66.4098,20.2462737 64.4268,23.0089053 C63.6483,24.0986947 62.8833,25.1930632 62.1288,26.2935368 C61.6773,26.9361158 61.2273,27.5771684 60.7758,28.2197474 C60.6303,28.4151158 60.4713,28.6089579 60.3033,28.8043263 C60.2808,28.8501158 60.2538,28.8898 60.2178,28.9249053 C60.2073,28.9355895 60.1968,28.9447474 60.1848,28.9508526 C60.1743,28.9554316 60.1563,28.9584842 60.1353,28.9584842 L60.0828,28.9584842 L60.0498,28.9584842 Z M99.0798,1.47258947 C97.5918,1.38101053 96.0918,1.32301053 94.5783,1.29553684 C94.4418,1.29248421 94.3068,1.28943158 94.1703,1.28637895 C92.0448,1.24058947 89.9043,1.23295789 87.7488,1.26348421 C84.8568,1.29553684 81.9573,1.39016842 79.0518,1.54737895 C76.9563,1.64353684 74.8608,1.77937895 72.7638,1.95490526 C70.6653,2.13043158 68.5653,2.37006316 66.4593,2.67074737 C65.4363,2.82490526 64.4148,3.00348421 63.3963,3.20343158 C63.1878,3.24922105 62.9733,3.29653684 62.7543,3.3408 C62.0373,3.47053684 61.3128,3.65674737 60.5793,3.90095789 C59.8443,4.14364211 59.5398,4.38632632 59.6613,4.63206316 C59.7828,4.87474737 60.1038,5.11132632 60.6243,5.34027368 C60.6558,5.35553684 60.6948,5.3708 60.7368,5.38758947 C60.8988,5.46237895 61.0623,5.53869474 61.2228,5.61348421 C61.4823,5.73406316 61.7418,5.85922105 61.9998,5.99201053 C62.2053,6.09427368 62.3058,6.26674737 62.3028,6.50943158 C62.3103,6.54301053 62.3058,6.58727368 62.2893,6.63611579 C62.2713,6.68801053 62.2458,6.72769474 62.2083,6.75822105 C62.1723,6.77653684 62.1273,6.79485263 62.0748,6.81316842 C62.0208,6.82995789 61.9788,6.83606316 61.9458,6.83301053 C61.0848,6.60101053 60.3078,6.25148421 59.6088,5.78290526 C59.0583,5.41353684 58.7913,4.87169474 58.8108,4.15737895 C58.8183,3.87043158 58.9398,3.62469474 59.1768,3.42016842 C59.4528,3.17290526 59.7498,2.97448421 60.0723,2.82490526 C60.6633,2.57764211 61.2693,2.36090526 61.8903,2.17469474 C62.4633,1.99458947 63.0453,1.85111579 63.6348,1.74122105 C64.2243,1.63285263 64.8123,1.52906316 65.4003,1.43290526 C65.4123,1.43290526 65.4228,1.43443158 65.4348,1.43595789 C67.3353,1.12306316 69.2313,0.884957895 71.1168,0.721642105 C73.6683,0.491168421 76.2078,0.311063158 78.7368,0.181326316 C81.2748,0.0653263158 83.7963,0.00427368421 86.3013,-0.000305263158 C87.8868,0.0103789474 89.4693,0.0378526316 91.0503,0.0836421053 C92.0103,0.117221053 92.9763,0.143168421 93.9498,0.155378947 C94.5243,0.172168421 95.0988,0.205747368 95.6718,0.256115789 C95.9193,0.271378947 96.1653,0.292747368 96.4128,0.318694737 C96.8628,0.344642105 97.3128,0.376694737 97.7628,0.413326316 C99.3708,0.518642105 100.9803,0.630063158 102.5868,0.747589474 C103.0488,0.775063158 103.4958,0.840694737 103.9263,0.944484211 C104.2473,1.02537895 104.4228,1.24058947 104.4558,1.59011579 C104.4513,1.62369474 104.4318,1.66490526 104.3988,1.71374737 C104.3658,1.76106316 104.3298,1.80685263 104.2908,1.84806316 C104.2533,1.8908 104.2158,1.90911579 104.1843,1.90606316 C103.6428,1.77785263 103.0713,1.71069474 102.4713,1.70306316 C101.9853,1.69695789 101.4903,1.65422105 100.9893,1.57637895 C100.3578,1.5428 99.7203,1.50922105 99.0798,1.47258947 L99.0798,1.47258947 Z" id="Fill-7" fill="#66C6C3" mask="url(#mask-2)"></path>
                    <path d="M76.97025,17.6616105 L77.01225,17.6616105 C77.02875,17.6616105 77.03775,17.6555053 77.03775,17.6448211 C77.18475,17.5410316 77.33025,17.4387684 77.47725,17.3349789 C77.70225,17.1625053 77.92875,16.9961368 78.15225,16.8358737 C78.98775,16.2619789 79.82025,15.7018211 80.65425,15.1508211 C80.88975,15.0134526 81.13275,14.8882947 81.38025,14.7722947 C81.40275,14.7722947 81.42675,14.7677158 81.44775,14.7555053 C81.70725,14.6410316 81.95175,14.6410316 82.18425,14.7555053 C82.41375,14.8699789 82.58625,15.0714526 82.69875,15.3568737 C82.77825,15.5873474 82.77225,15.7979789 82.68225,15.9933474 C82.59225,16.1429263 82.50225,16.2802947 82.41225,16.4069789 C82.38825,16.4527684 82.36125,16.4924526 82.32675,16.5260316 C82.24875,16.6420316 82.16925,16.7565053 82.08975,16.8709789 C81.84225,17.2479789 81.58875,17.6219263 81.32925,17.9882421 C81.12675,18.2751895 81.16125,18.5438211 81.43125,18.7971895 C81.47625,18.8536632 81.50925,18.9116632 81.53325,18.9681368 C81.54375,18.9910316 81.55575,19.0139263 81.56625,19.0368211 C81.58875,19.0948211 81.58275,19.1558737 81.54975,19.2184526 C81.51525,19.2810316 81.46575,19.3130842 81.39675,19.3130842 L81.32925,19.3130842 C81.17325,19.3237684 81.03075,19.3008737 80.90775,19.2444 C80.69325,19.1177158 80.52675,18.9589789 80.40825,18.7712421 C80.29125,18.5819789 80.20275,18.3774526 80.14725,18.1607158 C80.11425,18.0340316 80.12025,17.9027684 80.16375,17.7638737 C80.20875,17.6158211 80.25375,17.4662421 80.30025,17.3181895 C80.33325,17.2250842 80.36775,17.1335053 80.40075,17.0419263 C80.42325,16.9503474 80.38875,16.9228737 80.30025,16.9564526 C80.26425,16.9671368 80.22675,16.9854526 80.18175,17.0083474 C80.06775,17.0541368 79.96125,17.1121368 79.86075,17.1808211 C77.85525,18.5667158 75.97275,20.1098211 74.21625,21.8055579 C73.88925,22.1260842 73.55775,22.4420316 73.21875,22.7503474 C73.11825,22.8312421 73.00125,22.8541368 72.87225,22.8205579 C72.74325,22.7854526 72.62625,22.7060842 72.52575,22.5794 C72.28875,22.3046632 72.23925,22.0177158 72.37425,21.7200842 C72.48675,21.4896105 72.62175,21.2789789 72.77925,21.0836105 C74.41275,18.7788737 76.04625,16.4817684 77.67975,14.1877158 C77.75775,14.0854526 77.85525,13.9999789 77.96775,13.9297684 C78.00075,13.9190252 78.04125,13.9160316 78.08475,13.9221368 C78.12975,13.9282421 78.17025,13.9419789 78.20325,13.9648737 C78.38325,14.0793474 78.50175,14.2197684 78.55875,14.3861368 C78.61575,14.5525053 78.59775,14.7158211 78.50775,14.8760842 C78.23775,15.3232947 77.96775,15.7705053 77.69625,16.2177158 C77.58375,16.3779789 77.47725,16.5443474 77.37675,16.7152947 C77.29725,16.8419789 77.21775,16.9732421 77.13825,17.1121368 C77.03775,17.2601895 76.94175,17.4097684 76.85175,17.5593474 C76.79625,17.6509263 76.81725,17.6845053 76.91925,17.6616105 L76.97025,17.6616105 Z" id="Fill-8" fill="#66C6C3" mask="url(#mask-2)"></path>
                    <path d="M87.6504,22.0810579 C87.4029,21.9085842 87.2229,21.6735316 87.1104,21.3759 C86.9964,21.0782684 86.9739,20.7852158 87.0414,20.4982684 C87.0864,20.3273211 87.1374,20.1609526 87.1929,20.0006895 C87.2274,19.8969 87.2604,19.7931105 87.2964,19.6908474 C87.2964,19.6786368 87.2904,19.6649 87.2784,19.6465842 C87.2664,19.6313211 87.2559,19.6160579 87.2439,19.6038474 C87.2334,19.5931632 87.2169,19.5855316 87.1929,19.5779 C87.1719,19.5733211 87.1539,19.5702684 87.1434,19.5702684 C87.1314,19.5809526 87.1194,19.5870579 87.1104,19.5870579 C86.8959,19.6786368 86.6859,19.7763211 86.4849,19.8801105 C85.8864,20.1777421 85.2789,20.4356895 84.6594,20.6539526 C84.2529,20.7791105 83.8359,20.8371105 83.4084,20.8249 C83.0814,20.8142158 82.8069,20.6997421 82.5879,20.4814789 C82.3689,20.2647421 82.2219,20.0006895 82.1484,19.6908474 C82.0764,19.3810053 82.1079,19.0833737 82.2429,18.7964263 C82.2654,18.5216895 82.4874,18.1370579 82.9104,17.6440579 C83.3319,17.1525842 83.9184,16.7023211 84.6669,16.2947947 C85.4169,15.8872684 86.2194,15.6384789 87.0759,15.5469 C87.4029,15.4889 87.7239,15.4827947 88.0389,15.5301105 C88.3539,15.5759 88.6464,15.7010579 88.9179,15.9086368 C89.0754,16.0109 89.1714,16.1238474 89.2044,16.2429 C89.2389,16.3634789 89.2419,16.4687947 89.2134,16.5603737 C89.1834,16.6519526 89.1489,16.7099526 89.1039,16.7328474 C88.9119,16.7221632 88.7379,16.7053737 88.5789,16.6809526 C88.4109,16.6580579 88.2159,16.6473737 87.9954,16.6473737 C87.7764,16.6473737 87.4869,16.6992684 87.1254,16.8015316 C86.5734,16.9617947 86.0244,17.1693737 85.4784,17.4212158 C84.9324,17.6730579 84.4314,17.9859526 83.9739,18.3583737 C83.5179,18.7307947 83.1549,19.1749526 82.8849,19.6908474 C82.8399,19.7702158 82.8474,19.8282158 82.9104,19.8617947 C82.9719,19.8969 83.0544,19.9182684 83.1549,19.9213211 C83.2554,19.9289526 83.3544,19.9289526 83.4504,19.9213211 C83.5464,19.9182684 83.6124,19.9091105 83.6454,19.8969 C84.0849,19.7702158 84.5124,19.6221632 84.9294,19.4496895 C85.8534,19.0482684 86.7354,18.5796895 87.5739,18.0409 C88.4139,17.5021105 89.2044,16.8885316 89.9484,16.2001632 C90.0714,16.0734789 90.2019,15.9590053 90.3369,15.8552158 C90.3924,15.8109526 90.4554,15.7865316 90.5229,15.7865316 C90.5904,15.7865316 90.6579,15.8109526 90.7254,15.8552158 C90.8949,15.9941105 91.0179,16.1604789 91.0974,16.3543211 C91.1544,16.5039 91.1364,16.6412684 91.0479,16.7679526 C90.9564,16.8824263 90.8559,16.9907947 90.7434,17.0945842 C90.6969,17.1281632 90.6519,17.1693737 90.6084,17.2151632 C89.7969,18.0515842 89.0814,18.9627947 88.4619,19.9487947 C88.4499,19.9716895 88.4379,19.9884789 88.4274,20.0006895 C88.3254,20.1487421 88.2339,20.3074789 88.1484,20.4723211 C88.0629,20.6402158 87.9984,20.8142158 87.9534,20.9973737 C87.9429,21.0553737 87.9564,21.0996368 87.9954,21.1347421 C88.0359,21.1698474 88.0839,21.1805316 88.1394,21.1698474 C90.1119,20.2525316 91.6569,19.3443737 92.7789,18.4438474 C93.8979,17.5448474 94.5729,17.0716895 94.7994,17.0243737 C95.0229,16.9801105 95.1699,16.9846895 95.2389,17.0426895 C95.3064,17.0991632 95.3064,17.2777421 95.2389,17.5753737 C93.1089,19.3062158 91.6224,20.4723211 90.7839,21.0752158 C89.9439,21.6765842 89.4414,22.0062684 89.2719,22.0627421 C89.2614,22.0627421 89.2494,22.0688474 89.2389,22.0810579 C89.0814,22.1268474 88.9209,22.1726368 88.7559,22.2184263 C88.5939,22.2642158 88.4274,22.2810053 88.2579,22.2703211 C88.0329,22.2703211 87.8304,22.2077421 87.6504,22.0810579" id="Fill-9" fill="#66C6C3" mask="url(#mask-2)"></path>
                    <path d="M93.71625,21.9259842 C93.67125,21.9259842 93.62925,21.9168263 93.58875,21.9000368 C93.55125,21.8832474 93.51375,21.8573 93.48075,21.8221947 C93.28875,21.6512474 93.15975,21.4528263 93.09075,21.2284579 C93.02325,21.0056158 93.03525,20.7629316 93.12375,20.4988789 C93.26025,20.0852474 93.44625,19.6960368 93.68325,19.3297211 C94.55025,17.9194053 95.49675,16.5609842 96.52125,15.2544579 C96.63375,15.1048789 96.76875,14.9736158 96.92775,14.8591421 C96.96075,14.8240368 97.00275,14.8041947 97.05525,14.7980895 C97.10475,14.7935105 97.14675,14.7965632 97.18125,14.8072474 C97.32675,14.8530368 97.43625,14.9598789 97.50975,15.1247211 C97.58325,15.2910895 97.58625,15.4376158 97.51875,15.5643 C97.37325,15.8161421 97.21425,16.0618789 97.04625,16.3030368 C96.75225,16.7273526 96.45375,17.1562474 96.14925,17.5927737 C95.69925,18.2460368 95.25375,18.8931947 94.81425,19.5357737 C94.72575,19.6731421 94.64025,19.8166158 94.56075,19.9661947 C94.55025,19.9997737 94.53975,20.0287737 94.52775,20.0516684 L94.52775,20.0944053 C94.52775,20.1127211 94.53375,20.1325632 94.54575,20.1539316 C94.55625,20.1539316 94.56675,20.1600368 94.57875,20.1722474 C94.62225,20.1829316 94.66275,20.1920895 94.69575,20.1981947 C94.73025,20.2043 94.75875,20.2012474 94.78125,20.1890368 C94.99575,20.0623526 95.20275,19.9310895 95.40675,19.7937211 C97.11975,18.6138789 98.78025,17.3516158 100.39125,16.0115105 C100.41375,15.9870895 100.44225,15.9657211 100.47675,15.9428263 C100.63275,15.8039316 100.79175,15.6665632 100.94925,15.5291947 C101.32125,15.2315632 101.60325,15.3063526 101.79525,15.7535632 C101.81625,15.8207211 101.82825,15.8878789 101.82825,15.9504579 C101.82825,16.0130368 101.79975,16.0740895 101.74425,16.1320895 C100.17825,17.6904579 98.49825,19.0992474 96.70725,20.3615105 C96.11175,20.7629316 95.50725,21.1521421 94.89975,21.5306684 C94.82025,21.5871421 94.73625,21.6451421 94.64625,21.7031421 C94.40925,21.8740895 94.12275,21.9595632 93.78375,21.9595632 C93.76125,21.9488789 93.74025,21.9366684 93.71625,21.9259842" id="Fill-10" fill="#66C6C3" mask="url(#mask-2)"></path>
                    <path d="M104.8359,16.8187789 C105.1284,16.8187789 105.6579,16.6875158 106.4244,16.4234632 C106.7964,16.2754105 107.0664,16.1426211 107.2359,16.0281474 C107.4159,15.8785684 107.5059,15.7702 107.5059,15.7015158 C107.5059,15.6786211 107.4669,15.6618316 107.3874,15.6496211 C107.0604,15.6618316 106.4244,15.8678842 105.4779,16.2693053 C104.9829,16.5089368 104.7354,16.6753053 104.7354,16.7668842 C104.7354,16.8019895 104.7684,16.8187789 104.8359,16.8187789 M107.7414,14.7216211 C107.8779,14.7796211 108.0294,14.8986737 108.1989,15.0818316 C108.4014,15.3565684 108.5019,15.6099368 108.5019,15.8388842 L108.5019,15.9075684 C108.5019,16.1594105 108.3789,16.3837789 108.1314,16.5776211 C107.7699,16.8080947 107.4099,17.0034632 107.0499,17.1637263 C106.7904,17.2782 106.4529,17.3926737 106.0359,17.5071474 C105.5064,17.6216211 105.0834,17.6780947 104.7684,17.6780947 C104.4189,17.6780947 104.1369,17.6155158 103.9239,17.4888316 L103.8714,17.4888316 C103.7379,17.5468316 103.4499,17.7818842 103.0104,18.1939895 C102.8079,18.4351474 102.6624,18.6183053 102.5709,18.7449895 C102.3114,19.1464105 102.1824,19.4379368 102.1824,19.6210947 C102.1824,19.8393579 102.3024,19.9889368 102.5379,20.0683053 C102.7509,20.1156211 102.9894,20.1369895 103.2474,20.1369895 C103.9014,20.1369895 105.1074,19.9202526 106.8639,19.4852526 C108.5424,19.0136211 109.9794,18.4931474 111.1734,17.9192526 C112.2429,17.3697789 112.8174,17.0950421 112.8969,17.0950421 C112.9524,17.0828316 113.0154,17.0767263 113.0829,17.0767263 C113.2299,17.0767263 113.3244,17.1286211 113.3694,17.2324105 C113.3799,17.2782 113.3859,17.3056737 113.3859,17.3178842 L113.3859,17.3346737 C113.0709,17.6338316 112.7784,17.8734632 112.5069,18.0581474 C111.3474,18.8365684 109.9944,19.5234105 108.4524,20.1202 C107.9004,20.3384632 107.3079,20.5399368 106.6779,20.7230947 C105.8004,20.9749368 105.2979,21.1000947 105.1749,21.1000947 C104.6334,21.2038842 104.1489,21.2557789 103.7214,21.2557789 L103.6704,21.2557789 C102.9834,21.2557789 102.4644,21.1062 102.1164,20.8085684 C101.9124,20.6483053 101.7489,20.4651474 101.6244,20.2575684 C101.3994,19.8790421 101.2869,19.5020421 101.2869,19.1235158 L101.2869,19.0884105 C101.2869,18.4351474 101.5749,17.8215684 102.1494,17.2492 C102.2964,17.0767263 102.4974,16.8767789 102.7569,16.6478316 C103.2639,16.2006211 103.7769,15.8282 104.2959,15.5290421 C105.4554,14.9108842 106.4349,14.6010421 107.2359,14.6010421 C107.3814,14.6010421 107.5509,14.6407263 107.7414,14.7216211" id="Fill-11" fill="#66C6C3" mask="url(#mask-2)"></path>
                    <path d="M118.87935,11.7807158 C118.91235,11.7807158 118.94685,11.7700316 118.97985,11.7471368 C121.44735,10.0376632 123.70635,8.07176842 125.75685,5.84792632 C125.81235,5.77924211 125.85735,5.69987368 125.89185,5.60829474 C125.89185,5.59608421 125.88585,5.58082105 125.87535,5.56555789 C125.86335,5.54724211 125.84685,5.53350526 125.82435,5.52129474 C125.81235,5.51061053 125.79585,5.4984 125.77335,5.48771579 C125.75085,5.47550526 125.73285,5.47092632 125.72235,5.47092632 C125.63235,5.51671579 125.54685,5.56250526 125.47035,5.60829474 C125.23185,5.73497895 125.00685,5.87082105 124.79235,6.0204 C122.63085,7.63676842 120.65385,9.45461053 118.86135,11.4708737 C118.82835,11.5166632 118.79985,11.5624526 118.77735,11.6097684 C118.76685,11.6433474 118.75485,11.6723474 118.74285,11.6952421 C118.66335,11.8326105 118.69785,11.8616105 118.84485,11.7807158 L118.87935,11.7807158 Z M110.90235,23.2845579 C110.71185,22.9518211 110.61435,22.6022947 110.61435,22.2359789 C110.61435,21.7658737 110.69385,21.3125579 110.85135,20.8760316 C111.12135,20.0854 111.46635,19.3359789 111.88335,18.6247158 C112.14135,18.1897158 112.40685,17.7592947 112.67685,17.3349789 C112.77885,17.1747158 112.87935,17.0144526 112.97985,16.8541895 C113.04885,16.7504 113.11635,16.6466105 113.18385,16.5443474 C113.60685,15.8147684 114.45735,14.8180842 114.67035,14.4975579 L114.87285,14.2228211 C115.92135,12.8705053 117.02085,11.5716105 118.16835,10.3276632 C119.31735,9.08371579 120.52935,7.90082105 121.80135,6.77745263 C122.92785,5.76855789 124.13385,4.86803158 125.41785,4.0774 C125.89185,3.79045263 126.38685,3.56150526 126.90585,3.38903158 C127.25535,3.28676842 127.54185,3.36613684 127.76835,3.63018947 C128.20635,4.10029474 128.25735,4.60397895 127.91835,5.14276842 C127.44585,5.83113684 126.91635,6.46761053 126.33135,7.05218947 C124.42635,9.03487368 122.35935,10.8344 120.12885,12.4507684 C118.61985,13.5527684 117.09435,14.6349263 115.54935,15.7018211 C115.24485,15.9078737 114.98535,16.1597158 114.77235,16.4573474 C113.95035,17.5700316 113.19585,18.7224 112.50735,19.9144526 C112.10235,20.6486105 111.78585,21.4148211 111.56085,22.2176632 C111.51735,22.3901368 111.50535,22.5671895 111.52785,22.7503474 C111.52785,22.7976632 111.54735,22.8373474 111.58785,22.8724526 C111.62685,22.9060316 111.66285,22.9289263 111.69735,22.9411368 L111.78135,22.9411368 C111.98385,22.9747158 112.18035,22.9640316 112.37235,22.9060316 C112.92435,22.7121895 113.46585,22.4817158 113.99535,22.2176632 C115.33635,21.5537158 116.56935,20.8409263 117.69585,20.0777684 C118.82235,19.3161368 119.96085,18.4690316 121.10835,17.5410316 C121.40235,17.3120842 121.62435,17.2052421 121.77735,17.2235579 C121.92885,17.2403474 122.01585,17.3120842 122.03835,17.4387684 C122.06085,17.5639263 122.02785,17.6722947 121.93785,17.7638737 C121.86885,17.8676632 121.73085,18.0233474 121.52385,18.2294 C121.31385,18.4354526 121.09485,18.6476105 120.86385,18.8658737 C120.63285,19.0826105 120.45585,19.2489789 120.33285,19.3634526 C120.32085,19.3756632 120.30285,19.3863474 120.28185,19.3985579 C118.51335,21.0027158 116.56335,22.3443474 114.43485,23.4219263 C114.22035,23.5257158 113.99535,23.6172947 113.75835,23.6966632 C113.59935,23.7546632 113.44935,23.8172421 113.30235,23.8859263 C112.97535,24.0232947 112.59885,24.0874 112.16985,24.0751895 C111.62985,24.0874 111.20685,23.8233474 110.90235,23.2845579 L110.90235,23.2845579 Z" id="Fill-12" fill="#66C6C3" mask="url(#mask-2)"></path>
                </g>
            </g>
        </g>
    </g>
</svg>